<svg width="14" height="15" viewBox="0 0 14 15" fill="none" xmlns="http://www.w3.org/2000/svg">
<path d="M6 1C6 0.447715 5.55228 0 5 0C4.44772 0 4 0.447715 4 1V2H3C1.34315 2 0 3.34315 0 5C0 5.55228 0.447715 6 1 6C1.55228 6 2 5.55228 2 5C2 4.44772 2.44772 4 3 4H4V5.00037C4 5.55266 4.44772 6.0004 5 6.0004C5.55228 6.0004 6 5.55228 6 5V4H8V5.00037C8 5.55266 8.44771 6.0004 9 6.0004C9.55229 6.0004 10 5.55228 10 5V4H12V8H1C0.447715 8 0 8.44772 0 9V13C0 14.1046 0.89543 15 2 15H12C13.1046 15 14 14.1046 14 13V4C14 2.89543 13.1046 2 12 2H10V1C10 0.447715 9.55229 0 9 0C8.44771 0 8 0.447715 8 1V2H6V1ZM2 10H12V13H2V10Z" fill="#001122" fill-opacity="0.55"/>
</svg>
