<svg width="20" height="18" viewBox="0 0 20 18" fill="none" xmlns="http://www.w3.org/2000/svg">
<path d="M3.12602 3C3.57006 1.27477 5.13616 0 7 0C8.86384 0 10.4299 1.27477 10.874 3H19C19.5523 3 20 3.44772 20 4C20 4.55228 19.5523 5 19 5L10.874 5C10.4299 6.72523 8.86384 8 7 8C5.13616 8 3.57006 6.72523 3.12602 5H1C0.447715 5 0 4.55228 0 4C0 3.44772 0.447715 3 1 3H3.12602ZM5 4C5 5.10457 5.89543 6 7 6C8.10457 6 9 5.10457 9 4C9 2.89543 8.10457 2 7 2C5.89543 2 5 2.89543 5 4Z" fill="#005BFF"/>
<path d="M9 14C9 11.7909 10.7909 10 13 10C14.8638 10 16.4299 11.2748 16.874 13H19C19.5523 13 20 13.4477 20 14C20 14.5523 19.5523 15 19 15H16.874C16.4299 16.7252 14.8638 18 13 18C10.7909 18 9 16.2091 9 14ZM11 14C11 15.1046 11.8954 16 13 16C14.1046 16 15 15.1046 15 14C15 12.8954 14.1046 12 13 12C11.8954 12 11 12.8954 11 14Z" fill="#005BFF"/>
<path d="M0 14C0 13.4477 0.447715 13 1 13H6C6.55228 13 7 13.4477 7 14C7 14.5523 6.55228 15 6 15H1C0.447715 15 0 14.5523 0 14Z" fill="#005BFF"/>
</svg>
