<svg width="30" height="30" viewBox="0 0 30 30" fill="none" xmlns="http://www.w3.org/2000/svg">
<path d="M15.0108 3.26682e-06C6.72377 -0.00540604 0.00541257 6.70754 3.26682e-06 14.9892C-0.00540604 23.2762 6.70754 29.9946 14.9892 30C23.2708 30.0054 29.9946 23.2925 30 15.0108C30 15.0054 30 15 30 14.9892C30 6.71295 23.2871 3.26682e-06 15.0108 3.26682e-06ZM23.0058 14.9892C23.0058 19.4086 19.4248 22.9895 15.0108 22.9949C10.5914 23.0004 6.99964 19.4194 6.99423 15C6.98882 10.5806 10.5698 6.98882 14.9892 6.98341C19.4086 6.978 23.0004 10.559 23.0058 14.9784V14.9892Z" fill="#005BFF"/>
</svg>
