<svg width="19" height="19" viewBox="0 0 19 19" fill="none" xmlns="http://www.w3.org/2000/svg">
<path d="M8 2C4.68629 2 2 4.68629 2 8C2 11.3137 4.68629 14 8 14C9.61905 14 11.1689 13.3613 12.24 12.3437C12.6662 11.9389 13.3483 11.9341 13.7771 12.3629L18.7071 17.2929C19.0976 17.6834 19.0976 18.3166 18.7071 18.7071C18.3166 19.0976 17.6834 19.0976 17.2929 18.7071L12.9465 14.3607C11.5704 15.3943 9.81416 16 8 16C3.58172 16 0 12.4183 0 8C0 3.58172 3.58172 0 8 0C12.4183 0 16 3.58172 16 8C16 8.48131 15.9574 8.95351 15.8755 9.4128C15.7785 9.95651 15.2591 10.3187 14.7154 10.2217C14.1717 10.1247 13.8096 9.60536 13.9065 9.06166C13.9679 8.71775 14 8.36305 14 8C14 4.68629 11.3137 2 8 2Z" fill="#001122" fill-opacity="0.45"/>
</svg>
